<svg width="120" height="27" viewBox="0 0 120 27" fill="none" xmlns="http://www.w3.org/2000/svg">
<g id="Group 2">
<path id="Union" fill-rule="evenodd" clip-rule="evenodd" d="M15.8756 0H12.0711V3.8045V7.609H8.26665V11.4135H4.46215H0.657654V15.218H4.46215H8.26665V19.0225H12.0711V22.827V26.6315H15.8756V22.827V19.0225L19.6801 19.0225V15.218H23.4846H27.2891V11.4135H23.4846H19.6801V7.609H15.8756V3.8045V0ZM15.8756 7.609V11.4135H19.6801V15.218H15.8756V19.0225L12.0711 19.0225V15.218H8.26665V11.4135H12.0711V7.609H15.8756Z" fill="#9A82DB"/>
<g id="Sparkle">
<path id="Vector" d="M109.347 19.1414V11.1519H112.011V13.8151H117.337V11.1519H120V16.4782H112.011V19.1414H109.347ZM112.011 19.1414H120V21.8045H112.011V19.1414ZM112.011 11.1519V8.48877H117.337V11.1519H112.011Z" fill="#9A82DB"/>
<path id="Vector_2" d="M101.358 19.1414V3.16248H104.021V19.1414H101.358ZM104.021 19.1414H106.684V21.8045H104.021V19.1414Z" fill="#9A82DB"/>
<path id="Vector_3" d="M88.0422 21.8045V3.16248H90.7054V13.8151H93.3685V16.4782H90.7054V21.8045H88.0422ZM93.3685 16.4782H96.0317V19.1414H93.3685V16.4782ZM93.3685 13.8151V11.1519H96.0317V13.8151H93.3685ZM96.0317 19.1414H98.6948V21.8045H96.0317V19.1414ZM96.0317 11.1519V8.48877H98.6948V11.1519H96.0317Z" fill="#9A82DB"/>
<path id="Vector_4" d="M77.3896 21.8045V8.48877H80.0528V11.1519H82.7159V13.8151H80.0528V21.8045H77.3896ZM82.7159 11.1519V8.48877H85.3791V11.1519H82.7159Z" fill="#9A82DB"/>
<path id="Vector_5" d="M64.0739 19.1414V16.4782H66.7371V19.1414H64.0739ZM64.0739 11.1519V8.48877H72.0634V11.1519H64.0739ZM66.7371 16.4782V13.8151H72.0634V11.1519H74.7265V21.8045H66.7371V19.1414H72.0634V16.4782H66.7371Z" fill="#9A82DB"/>
<path id="Vector_6" d="M50.7582 24.4677V8.48877H58.7476V11.1519H53.4213V16.4782H58.7476V19.1414H53.4213V24.4677H50.7582ZM61.4108 16.4782H58.7476V11.1519H61.4108V16.4782Z" fill="#9A82DB"/>
<path id="Vector_7" d="M37.4424 21.8045V19.1414H45.4318V21.8045H37.4424ZM37.4424 11.1519V5.82562H40.1055V11.1519H37.4424ZM40.1055 11.1519H45.4318V13.8151H40.1055V11.1519ZM40.1055 5.82562V3.16248H48.095V5.82562H40.1055ZM45.4318 19.1414V13.8151H48.095V19.1414H45.4318Z" fill="#9A82DB"/>
</g>
</g>
</svg>
