<svg width="14" height="14" viewBox="0 0 14 14" fill="none" xmlns="http://www.w3.org/2000/svg">
<g id="Vector">
<path d="M2 4H3V5H2V4Z" fill="black"/>
<path d="M3 3H4V4H3V3Z" fill="black"/>
<path d="M0 6H1V7H0V6Z" fill="black"/>
<path d="M13 6H14V7H13V6Z" fill="black"/>
<path d="M12 5H13V6H12V5Z" fill="black"/>
<path d="M11 4H12V5H11V4Z" fill="black"/>
<path d="M10 3H11V4H10V3Z" fill="black"/>
<path d="M9 2H10V3H9V2Z" fill="black"/>
<path d="M8 1H9V2H8V1Z" fill="black"/>
<path d="M5 1H6V2H5V1Z" fill="black"/>
<path d="M4 2H5V3H4V2Z" fill="black"/>
<path d="M1 5H2V6H1V5Z" fill="black"/>
<path d="M2 7H1V13H2V7Z" fill="black"/>
<path d="M2 13V14H5V13H2Z" fill="black"/>
<path d="M5 13H6V10H5V13Z" fill="black"/>
<path d="M6 9V10H8V9H6Z" fill="black"/>
<path d="M9 10H8V13H9V10Z" fill="black"/>
<path d="M9 13V14H12V13H9Z" fill="black"/>
<path d="M12 13H13V7H12V13Z" fill="black"/>
<path d="M8 0H6V1H8V0Z" fill="black"/>
</g>
</svg>
