<svg width="12" height="14" viewBox="0 0 12 14" fill="none" xmlns="http://www.w3.org/2000/svg">
<g id="Vector">
<path d="M8 12V11H7V12H8Z" fill="black"/>
<path d="M9 13V12H8V13H9Z" fill="black"/>
<path d="M4 12V11H5V12H4Z" fill="black"/>
<path d="M3 13V12H4V13H3Z" fill="black"/>
<path d="M3 14V13H1L1 14H3Z" fill="black"/>
<path d="M4.37114e-08 13H1L1 9H0L4.37114e-08 13Z" fill="black"/>
<path d="M1 9H2V7H1L1 9Z" fill="black"/>
<path d="M2 7H3V5H2V7Z" fill="black"/>
<path d="M3 5H4V3H3V5Z" fill="black"/>
<path d="M4 3H5V1L4 1V3Z" fill="black"/>
<path d="M7 1V4.37114e-08L5 0V1L7 1Z" fill="black"/>
<path d="M7 3H8V1L7 1V3Z" fill="black"/>
<path d="M8 5H9V3H8V5Z" fill="black"/>
<path d="M9 7H10V5H9V7Z" fill="black"/>
<path d="M10 9H11V7H10V9Z" fill="black"/>
<path d="M11 13H12V9H11V13Z" fill="black"/>
<path d="M9 13V14H11V13H9Z" fill="black"/>
<path d="M7 11V10H5V11H7Z" fill="black"/>
</g>
</svg>
