<svg width="15" height="14" viewBox="0 0 15 14" fill="none" xmlns="http://www.w3.org/2000/svg">
<g id="Vector">
<path d="M4.66663 9H5.66663V10H4.66663V9Z" fill="black"/>
<path d="M10.6666 9H9.66663V10H10.6666V9Z" fill="black"/>
<path d="M4.66663 4H5.66663V5H4.66663V4Z" fill="black"/>
<path d="M10.6666 4H9.66663V5H10.6666V4Z" fill="black"/>
<path d="M5.66663 5H6.66663V6H5.66663V5Z" fill="black"/>
<path d="M9.66663 5H8.66663V6H9.66663V5Z" fill="black"/>
<path d="M3.66663 5H4.66663V6H3.66663V5Z" fill="black"/>
<path d="M11.6666 5H10.6666V6H11.6666V5Z" fill="black"/>
<path d="M4.66663 13V14H10.6666V13H4.66663Z" fill="black"/>
<path d="M9.66663 11V10H5.66663V11H9.66663Z" fill="black"/>
<path d="M2.66663 12V13H4.66663V12H2.66663Z" fill="black"/>
<path d="M2.66663 10H1.66663V12H2.66663V10Z" fill="black"/>
<path d="M0.666626 10H1.66663V4H0.666626V10Z" fill="black"/>
<path d="M1.66663 4H2.66663V2H1.66663L1.66663 4Z" fill="black"/>
<path d="M2.66663 1V2H4.66663V1H2.66663Z" fill="black"/>
<path d="M4.66663 0V1H10.6666V0H4.66663Z" fill="black"/>
<path d="M12.6666 2V1H10.6666V2H12.6666Z" fill="black"/>
<path d="M12.6666 4H13.6666V2H12.6666V4Z" fill="black"/>
<path d="M13.6666 10H14.6666V4H13.6666V10Z" fill="black"/>
<path d="M13.6666 10H12.6666V12H13.6666V10Z" fill="black"/>
<path d="M12.6666 13V12H10.6666V13H12.6666Z" fill="black"/>
</g>
</svg>
